<?xml version="1.0" encoding="UTF-8"?><svg xmlns="http://www.w3.org/2000/svg" xmlns:xlink="http://www.w3.org/1999/xlink" version="1.1" id="Layer_1" x="0px" y="0px" viewBox="0 0 16 16" xml:space="preserve"><path d="M15.817 7.113L8.624 1.219a.996.996 0 0 0-1.253.004L.183 7.113A.5.5 0 0 0 0 7.5V15c0 .552.449 1 1 1h14a1 1 0 0 0 1-1V7.5a.5.5 0 0 0-.183-.387z" fill="#1565C0"/><path fill="#CFD8DC" d="M8 9.414L5.293 6.707l1.414-1.414L8 6.586l5.293-5.293 1.414 1.414z"/><path d="M0 7.5L14 16H1a1 1 0 0 1-1-1V7.5z" fill="#2196F3"/><path d="M16 7.5L2 16h13a1 1 0 0 0 1-1V7.5z" fill="#64B5F6"/><metadata><rdf:RDF xmlns:rdf="http://www.w3.org/1999/02/22-rdf-syntax-ns#" xmlns:rdfs="http://www.w3.org/2000/01/rdf-schema#" xmlns:dc="http://purl.org/dc/elements/1.1/"><rdf:Description about="https://iconscout.com/legal#licenses" dc:title="inbox,google,logo,color,e" dc:description="inbox,google,logo,color,e" dc:publisher="Iconscout" dc:date="2018-02-17" dc:format="image/svg+xml" dc:language="en"><dc:creator><rdf:Bag><rdf:li>Pixel Icons</rdf:li></rdf:Bag></dc:creator></rdf:Description></rdf:RDF></metadata></svg>